<?xml version="1.0" encoding="UTF-8" standalone="no"?>
<!--suppress ALL -->
<svg xmlns="http://www.w3.org/2000/svg" contentScriptType="application/ecmascript" contentStyleType="text/css"
     height="1126px" preserveAspectRatio="none" style="width:997px;height:1126px;" version="1.1" viewBox="0 0 997 1126"
     width="997px" zoomAndPan="magnify"><defs><filter height="300%" id="f1m7iw9s3174wi" width="300%" x="-1" y="-1"><feGaussianBlur result="blurOut" stdDeviation="2.0"/><feColorMatrix in="blurOut" result="blurOut2" type="matrix" values="0 0 0 0 0 0 0 0 0 0 0 0 0 0 0 0 0 0 .4 0"/><feOffset dx="4.0" dy="4.0" in="blurOut2" result="blurOut3"/><feBlend in="SourceGraphic" in2="blurOut3" mode="normal"/></filter></defs><g><rect fill="none" height="27.6094" style="stroke:none;stroke-width:1.0;" width="215" x="361" y="15"/><text fill="#000000" font-family="sans-serif" font-size="14" font-weight="bold" lengthAdjust="spacing" textLength="205" x="366" y="34.5332">Java2UML Package Structure</text><rect fill="#FEFECE" filter="url(#f1m7iw9s3174wi)" height="37.6094" rx="12.5" ry="12.5" style="stroke:#A80036;stroke-width:1.5;" width="180" x="10" y="562.6914"/><text fill="#000000" font-family="sans-serif" font-size="14" lengthAdjust="spacing" textLength="160" x="20" y="587.2246">org.java2uml.java2umlapi</text><rect fill="#FEFECE" filter="url(#f1m7iw9s3174wi)" height="37.6094" rx="12.5" ry="12.5" style="stroke:#A80036;stroke-width:1.5;" width="233" x="240" y="58.6094"/><text fill="#000000" font-family="sans-serif" font-size="14" lengthAdjust="spacing" textLength="213" x="250" y="83.1426">org.java2uml.java2umlapi.aspects</text><path d="M190,581.4961 L200,581.4961 C215,581.4961 215,77.4141 230,77.4141 L240,77.4141 " fill="none" style="stroke:#A80036;stroke-width:1.0;"/><rect fill="#FEFECE" filter="url(#f1m7iw9s3174wi)" height="37.6094" rx="12.5" ry="12.5" style="stroke:#A80036;stroke-width:1.5;" width="245" x="240" y="116.2188"/><text fill="#000000" font-family="sans-serif" font-size="14" lengthAdjust="spacing" textLength="225" x="250" y="140.752">org.java2uml.java2umlapi.callGraph</text><path d="M190,581.4961 L200,581.4961 C215,581.4961 215,135.0234 230,135.0234 L240,135.0234 " fill="none" style="stroke:#A80036;stroke-width:1.0;"/><rect fill="#FEFECE" filter="url(#f1m7iw9s3174wi)" height="37.6094" rx="12.5" ry="12.5" style="stroke:#A80036;stroke-width:1.5;" width="251" x="240" y="173.8281"/><text fill="#000000" font-family="sans-serif" font-size="14" lengthAdjust="spacing" textLength="231" x="250" y="198.3613">org.java2uml.java2umlapi.exceptions</text><path d="M190,581.4961 L200,581.4961 C215,581.4961 215,192.6328 230,192.6328 L240,192.6328 " fill="none" style="stroke:#A80036;stroke-width:1.0;"/><rect fill="#FEFECE" filter="url(#f1m7iw9s3174wi)" height="37.6094" rx="12.5" ry="12.5" style="stroke:#A80036;stroke-width:1.5;" width="252" x="240" y="231.4375"/><text fill="#000000" font-family="sans-serif" font-size="14" lengthAdjust="spacing" textLength="232" x="250" y="255.9707">org.java2uml.java2umlapi.fileStorage</text><rect fill="#FEFECE" filter="url(#f1m7iw9s3174wi)" height="37.6094" rx="12.5" ry="12.5" style="stroke:#A80036;stroke-width:1.5;" width="290" x="542" y="145.0234"/><text fill="#000000" font-family="sans-serif" font-size="14" lengthAdjust="spacing" textLength="270" x="552" y="169.5566">org.java2uml.java2umlapi.fileStorage.entity</text><path d="M492,250.2422 L502,250.2422 C517,250.2422 517,163.8281 532,163.8281 L542,163.8281 " fill="none" style="stroke:#A80036;stroke-width:1.0;"/><rect fill="#FEFECE" filter="url(#f1m7iw9s3174wi)" height="37.6094" rx="12.5" ry="12.5" style="stroke:#A80036;stroke-width:1.5;" width="323" x="542" y="202.6328"/><text fill="#000000" font-family="sans-serif" font-size="14" lengthAdjust="spacing" textLength="303" x="552" y="227.166">org.java2uml.java2umlapi.fileStorage.exceptions</text><path d="M492,250.2422 L502,250.2422 C517,250.2422 517,221.4375 532,221.4375 L542,221.4375 " fill="none" style="stroke:#A80036;stroke-width:1.0;"/><rect fill="#FEFECE" filter="url(#f1m7iw9s3174wi)" height="37.6094" rx="12.5" ry="12.5" style="stroke:#A80036;stroke-width:1.5;" width="319" x="542" y="260.2422"/><text fill="#000000" font-family="sans-serif" font-size="14" lengthAdjust="spacing" textLength="299" x="552" y="284.7754">org.java2uml.java2umlapi.fileStorage.repository</text><path d="M492,250.2422 L502,250.2422 C517,250.2422 517,279.0469 532,279.0469 L542,279.0469 " fill="none" style="stroke:#A80036;stroke-width:1.0;"/><rect fill="#FEFECE" filter="url(#f1m7iw9s3174wi)" height="37.6094" rx="12.5" ry="12.5" style="stroke:#A80036;stroke-width:1.5;" width="301" x="542" y="317.8516"/><text fill="#000000" font-family="sans-serif" font-size="14" lengthAdjust="spacing" textLength="281" x="552" y="342.3848">org.java2uml.java2umlapi.fileStorage.service</text><path d="M492,250.2422 L502,250.2422 C517,250.2422 517,336.6563 532,336.6563 L542,336.6563 " fill="none" style="stroke:#A80036;stroke-width:1.0;"/><path d="M190,581.4961 L200,581.4961 C215,581.4961 215,250.2422 230,250.2422 L240,250.2422 " fill="none" style="stroke:#A80036;stroke-width:1.0;"/><rect fill="#FEFECE" filter="url(#f1m7iw9s3174wi)" height="37.6094" rx="12.5" ry="12.5" style="stroke:#A80036;stroke-width:1.5;" width="254" x="240" y="404.2656"/><text fill="#000000" font-family="sans-serif" font-size="14" lengthAdjust="spacing" textLength="234" x="250" y="428.7988">org.java2uml.java2umlapi.lightWeight</text><rect fill="#FEFECE" filter="url(#f1m7iw9s3174wi)" height="37.6094" rx="12.5" ry="12.5" style="stroke:#A80036;stroke-width:1.5;" width="321" x="544" y="375.4609"/><text fill="#000000" font-family="sans-serif" font-size="14" lengthAdjust="spacing" textLength="301" x="554" y="399.9941">org.java2uml.java2umlapi.lightWeight.repository</text><path d="M494,423.0703 L504,423.0703 C519,423.0703 519,394.2656 534,394.2656 L544,394.2656 " fill="none" style="stroke:#A80036;stroke-width:1.0;"/><rect fill="#FEFECE" filter="url(#f1m7iw9s3174wi)" height="37.6094" rx="12.5" ry="12.5" style="stroke:#A80036;stroke-width:1.5;" width="303" x="544" y="433.0703"/><text fill="#000000" font-family="sans-serif" font-size="14" lengthAdjust="spacing" textLength="283" x="554" y="457.6035">org.java2uml.java2umlapi.lightWeight.service</text><path d="M494,423.0703 L504,423.0703 C519,423.0703 519,451.875 534,451.875 L544,451.875 " fill="none" style="stroke:#A80036;stroke-width:1.0;"/><path d="M190,581.4961 L200,581.4961 C215,581.4961 215,423.0703 230,423.0703 L240,423.0703 " fill="none" style="stroke:#A80036;stroke-width:1.0;"/><rect fill="#FEFECE" filter="url(#f1m7iw9s3174wi)" height="37.6094" rx="12.5" ry="12.5" style="stroke:#A80036;stroke-width:1.5;" width="295" x="240" y="490.6797"/><text fill="#000000" font-family="sans-serif" font-size="14" lengthAdjust="spacing" textLength="275" x="250" y="515.2129">org.java2uml.java2umlapi.modelAssemblers</text><path d="M190,581.4961 L200,581.4961 C215,581.4961 215,509.4844 230,509.4844 L240,509.4844 " fill="none" style="stroke:#A80036;stroke-width:1.0;"/><rect fill="#FEFECE" filter="url(#f1m7iw9s3174wi)" height="37.6094" rx="12.5" ry="12.5" style="stroke:#A80036;stroke-width:1.5;" width="301" x="240" y="548.2891"/><text fill="#000000" font-family="sans-serif" font-size="14" lengthAdjust="spacing" textLength="281" x="250" y="572.8223">org.java2uml.java2umlapi.parsedComponent</text><rect fill="#FEFECE" filter="url(#f1m7iw9s3174wi)" height="37.6094" rx="12.5" ry="12.5" style="stroke:#A80036;stroke-width:1.5;" width="350" x="591" y="548.2891"/><text fill="#000000" font-family="sans-serif" font-size="14" lengthAdjust="spacing" textLength="330" x="601" y="572.8223">org.java2uml.java2umlapi.parsedComponent.service</text><path d="M541,567.0938 L551,567.0938 C566,567.0938 566,567.0938 581,567.0938 L591,567.0938 " fill="none" style="stroke:#A80036;stroke-width:1.0;"/><path d="M190,581.4961 L200,581.4961 C215,581.4961 215,567.0938 230,567.0938 L240,567.0938 " fill="none" style="stroke:#A80036;stroke-width:1.0;"/><rect fill="#FEFECE" filter="url(#f1m7iw9s3174wi)" height="37.6094" rx="12.5" ry="12.5" style="stroke:#A80036;stroke-width:1.5;" width="225" x="240" y="605.8984"/><text fill="#000000" font-family="sans-serif" font-size="14" lengthAdjust="spacing" textLength="205" x="250" y="630.4316">org.java2uml.java2umlapi.parser</text><path d="M190,581.4961 L200,581.4961 C215,581.4961 215,624.7031 230,624.7031 L240,624.7031 " fill="none" style="stroke:#A80036;stroke-width:1.0;"/><rect fill="#FEFECE" filter="url(#f1m7iw9s3174wi)" height="37.6094" rx="12.5" ry="12.5" style="stroke:#A80036;stroke-width:1.5;" width="277" x="240" y="721.1172"/><text fill="#000000" font-family="sans-serif" font-size="14" lengthAdjust="spacing" textLength="257" x="250" y="745.6504">org.java2uml.java2umlapi.restControllers</text><rect fill="#FEFECE" filter="url(#f1m7iw9s3174wi)" height="37.6094" rx="12.5" ry="12.5" style="stroke:#A80036;stroke-width:1.5;" width="411" x="567" y="605.8984"/><text fill="#000000" font-family="sans-serif" font-size="14" lengthAdjust="spacing" textLength="391" x="577" y="630.4316">org.java2uml.java2umlapi.restControllers.callGraphControllers</text><path d="M517,739.9219 L527,739.9219 C542,739.9219 542,624.7031 557,624.7031 L567,624.7031 " fill="none" style="stroke:#A80036;stroke-width:1.0;"/><rect fill="#FEFECE" filter="url(#f1m7iw9s3174wi)" height="37.6094" rx="12.5" ry="12.5" style="stroke:#A80036;stroke-width:1.5;" width="312" x="567" y="663.5078"/><text fill="#000000" font-family="sans-serif" font-size="14" lengthAdjust="spacing" textLength="292" x="577" y="688.041">org.java2uml.java2umlapi.restControllers.error</text><path d="M517,739.9219 L527,739.9219 C542,739.9219 542,682.3125 557,682.3125 L567,682.3125 " fill="none" style="stroke:#A80036;stroke-width:1.0;"/><rect fill="#FEFECE" filter="url(#f1m7iw9s3174wi)" height="37.6094" rx="12.5" ry="12.5" style="stroke:#A80036;stroke-width:1.5;" width="408" x="567" y="721.1172"/><text fill="#000000" font-family="sans-serif" font-size="14" lengthAdjust="spacing" textLength="388" x="577" y="745.6504">org.java2uml.java2umlapi.restControllers.exceptionalHandlers</text><path d="M517,739.9219 L527,739.9219 C542,739.9219 542,739.9219 557,739.9219 L567,739.9219 " fill="none" style="stroke:#A80036;stroke-width:1.0;"/><rect fill="#FEFECE" filter="url(#f1m7iw9s3174wi)" height="37.6094" rx="12.5" ry="12.5" style="stroke:#A80036;stroke-width:1.5;" width="348" x="567" y="778.7266"/><text fill="#000000" font-family="sans-serif" font-size="14" lengthAdjust="spacing" textLength="328" x="577" y="803.2598">org.java2uml.java2umlapi.restControllers.exceptions</text><path d="M517,739.9219 L527,739.9219 C542,739.9219 542,797.5313 557,797.5313 L567,797.5313 " fill="none" style="stroke:#A80036;stroke-width:1.0;"/><rect fill="#FEFECE" filter="url(#f1m7iw9s3174wi)" height="37.6094" rx="12.5" ry="12.5" style="stroke:#A80036;stroke-width:1.5;" width="371" x="567" y="836.3359"/><text fill="#000000" font-family="sans-serif" font-size="14" lengthAdjust="spacing" textLength="351" x="577" y="860.8691">org.java2uml.java2umlapi.restControllers.LWControllers</text><path d="M517,739.9219 L527,739.9219 C542,739.9219 542,855.1406 557,855.1406 L567,855.1406 " fill="none" style="stroke:#A80036;stroke-width:1.0;"/><path d="M190,581.4961 L200,581.4961 C215,581.4961 215,739.9219 230,739.9219 L240,739.9219 " fill="none" style="stroke:#A80036;stroke-width:1.0;"/><rect fill="#FEFECE" filter="url(#f1m7iw9s3174wi)" height="37.6094" rx="12.5" ry="12.5" style="stroke:#A80036;stroke-width:1.5;" width="202" x="240" y="922.75"/><text fill="#000000" font-family="sans-serif" font-size="14" lengthAdjust="spacing" textLength="182" x="250" y="947.2832">org.java2uml.java2umlapi.util</text><rect fill="#FEFECE" filter="url(#f1m7iw9s3174wi)" height="37.6094" rx="12.5" ry="12.5" style="stroke:#A80036;stroke-width:1.5;" width="281" x="492" y="893.9453"/><text fill="#000000" font-family="sans-serif" font-size="14" lengthAdjust="spacing" textLength="261" x="502" y="918.4785">org.java2uml.java2umlapi.util.umlSymbols</text><path d="M442,941.5547 L452,941.5547 C467,941.5547 467,912.75 482,912.75 L492,912.75 " fill="none" style="stroke:#A80036;stroke-width:1.0;"/><rect fill="#FEFECE" filter="url(#f1m7iw9s3174wi)" height="37.6094" rx="12.5" ry="12.5" style="stroke:#A80036;stroke-width:1.5;" width="260" x="492" y="951.5547"/><text fill="#000000" font-family="sans-serif" font-size="14" lengthAdjust="spacing" textLength="240" x="502" y="976.0879">org.java2uml.java2umlapi.util.unzipper</text><path d="M442,941.5547 L452,941.5547 C467,941.5547 467,970.3594 482,970.3594 L492,970.3594 " fill="none" style="stroke:#A80036;stroke-width:1.0;"/><path d="M190,581.4961 L200,581.4961 C215,581.4961 215,941.5547 230,941.5547 L240,941.5547 " fill="none" style="stroke:#A80036;stroke-width:1.0;"/><rect fill="#FEFECE" filter="url(#f1m7iw9s3174wi)" height="37.6094" rx="12.5" ry="12.5" style="stroke:#A80036;stroke-width:1.5;" width="228" x="240" y="1037.9688"/><text fill="#000000" font-family="sans-serif" font-size="14" lengthAdjust="spacing" textLength="208" x="250" y="1062.502">org.java2uml.java2umlapi.visitors</text><rect fill="#FEFECE" filter="url(#f1m7iw9s3174wi)" height="37.6094" rx="12.5" ry="12.5" style="stroke:#A80036;stroke-width:1.5;" width="358" x="518" y="1009.1641"/><text fill="#000000" font-family="sans-serif" font-size="14" lengthAdjust="spacing" textLength="338" x="528" y="1033.6973">org.java2uml.java2umlapi.visitors.lightWeightExtractor</text><path d="M468,1056.7734 L478,1056.7734 C493,1056.7734 493,1027.9688 508,1027.9688 L518,1027.9688 " fill="none" style="stroke:#A80036;stroke-width:1.0;"/><rect fill="#FEFECE" filter="url(#f1m7iw9s3174wi)" height="37.6094" rx="12.5" ry="12.5" style="stroke:#A80036;stroke-width:1.5;" width="310" x="518" y="1066.7734"/><text fill="#000000" font-family="sans-serif" font-size="14" lengthAdjust="spacing" textLength="290" x="528" y="1091.3066">org.java2uml.java2umlapi.visitors.umlExtractor</text><path d="M468,1056.7734 L478,1056.7734 C493,1056.7734 493,1085.5781 508,1085.5781 L518,1085.5781 " fill="none" style="stroke:#A80036;stroke-width:1.0;"/><path d="M190,581.4961 L200,581.4961 C215,581.4961 215,1056.7734 230,1056.7734 L240,1056.7734 " fill="none" style="stroke:#A80036;stroke-width:1.0;"/><!--MD5=[6797514045697d2a3fb54f8676f11132]
@startmindmap
title Java2UML Package Structure
    * org.java2uml.java2umlapi
    ** org.java2uml.java2umlapi.aspects
    ** org.java2uml.java2umlapi.callGraph
    ** org.java2uml.java2umlapi.exceptions
    ** org.java2uml.java2umlapi.fileStorage
    *** org.java2uml.java2umlapi.fileStorage.entity
    *** org.java2uml.java2umlapi.fileStorage.exceptions
    *** org.java2uml.java2umlapi.fileStorage.repository
    *** org.java2uml.java2umlapi.fileStorage.service
    ** org.java2uml.java2umlapi.lightWeight
    *** org.java2uml.java2umlapi.lightWeight.repository
    *** org.java2uml.java2umlapi.lightWeight.service
    ** org.java2uml.java2umlapi.modelAssemblers
    ** org.java2uml.java2umlapi.parsedComponent
    *** org.java2uml.java2umlapi.parsedComponent.service
    ** org.java2uml.java2umlapi.parser
    ** org.java2uml.java2umlapi.restControllers
    *** org.java2uml.java2umlapi.restControllers.callGraphControllers
    *** org.java2uml.java2umlapi.restControllers.error
    *** org.java2uml.java2umlapi.restControllers.exceptionalHandlers
    *** org.java2uml.java2umlapi.restControllers.exceptions
    *** org.java2uml.java2umlapi.restControllers.LWControllers
    ** org.java2uml.java2umlapi.util
    *** org.java2uml.java2umlapi.util.umlSymbols
    *** org.java2uml.java2umlapi.util.unzipper
    ** org.java2uml.java2umlapi.visitors
    *** org.java2uml.java2umlapi.visitors.lightWeightExtractor
    *** org.java2uml.java2umlapi.visitors.umlExtractor
@endmindmap

PlantUML version 1.2021.5(Sun Apr 25 16:50:28 IST 2021)
(GPL source distribution)
Java Runtime: OpenJDK Runtime Environment
JVM: Dynamic Code Evolution 64-Bit Server VM
Default Encoding: Cp1252
Language: en
Country: IN
--></g></svg>