<?xml version="1.0" encoding="UTF-8" standalone="no"?>
<!--suppress ALL -->
<svg xmlns="http://www.w3.org/2000/svg" contentScriptType="application/ecmascript" contentStyleType="text/css"
     height="90px" preserveAspectRatio="none" style="width:779px;height:90px;" version="1.1" viewBox="0 0 779 90"
     width="779px" zoomAndPan="magnify"><defs><filter height="300%" id="fnsbn69ho8jnc" width="300%" x="-1" y="-1"><feGaussianBlur result="blurOut" stdDeviation="2.0"/><feColorMatrix in="blurOut" result="blurOut2" type="matrix" values="0 0 0 0 0 0 0 0 0 0 0 0 0 0 0 0 0 0 .4 0"/><feOffset dx="4.0" dy="4.0" in="blurOut2" result="blurOut3"/><feBlend in="SourceGraphic" in2="blurOut3" mode="normal"/></filter></defs><g><!--MD5=[628cc5a2753cca06eb1ffef55c386535]
class Parser--><rect fill="#FEFECE" filter="url(#fnsbn69ho8jnc)" height="61.8359" id="Parser" style="stroke:#A80036;stroke-width:1.5;" width="211" x="257.5" y="12.5"/><ellipse cx="340.75" cy="28.5" fill="#A9DCDF" rx="11" ry="11" style="stroke:#A80036;stroke-width:1.0;"/><path d="M342.5,30 L339.2031,30 L338.7656,31 L338.7656,31 L339.2344,31 L339.75,31.625 L339.75,32 L339.75,32.375 L339.2344,33 L338.7656,33 L336.875,33 L336.2656,33 L335.75,32.375 L335.75,32 L335.75,31.625 L336.2656,31 L336.875,31 L339.1875,25 L338.3125,25 L337.2656,25 L336.75,24.375 L336.75,24 L336.75,23.625 L337.2656,23 L338.3125,23 L341.9844,23 L344.6719,31 L345.2344,31 L345.2344,31 L345.75,31.625 L345.75,32 L345.75,32.375 L345.2344,33 L344.6719,33 L342.7813,33 L342.2656,33 L341.75,32.375 L341.75,32 L341.75,31.625 L342.2656,31 L342.7813,31 L342.7813,31 L342.5,30 Z M341.9531,28 L340.75,24.4219 L339.7188,28 L341.9531,28 Z " fill="#000000"/><text fill="#000000" font-family="sans-serif" font-size="12" font-style="italic" lengthAdjust="spacing" textLength="36" x="361.25" y="33.4102">Parser</text><line style="stroke:#A80036;stroke-width:1.5;" x1="258.5" x2="467.5" y1="44.5" y2="44.5"/><line style="stroke:#A80036;stroke-width:1.5;" x1="258.5" x2="467.5" y1="52.5" y2="52.5"/><ellipse cx="268.5" cy="63.5" fill="#84BE84" rx="3" ry="3" style="stroke:#038048;stroke-width:1.0;"/><text fill="#000000" font-family="sans-serif" font-size="11" lengthAdjust="spacing" text-decoration="underline" textLength="185" x="277.5" y="67.9189">parse(PATH: Path): SourceComponent</text><path d="M6,14 L6,73.0547 A0,0 0 0 0 6,73.0547 L222,73.0547 A0,0 0 0 0 222,73.0547 L222,47.5 L257.31,43.5 L222,39.5 L222,24 L212,14 L6,14 A0,0 0 0 0 6,14 " fill="#FBFB77" filter="url(#fnsbn69ho8jnc)" style="stroke:#A80036;stroke-width:1.0;"/><path d="M212,14 L212,24 L222,24 L212,14 " fill="#FBFB77" style="stroke:#A80036;stroke-width:1.0;"/><text fill="#000000" font-family="sans-serif" font-size="13" lengthAdjust="spacing" textLength="191" x="12" y="32.4951">Parser class acts as a facade for</text><text fill="#000000" font-family="sans-serif" font-size="13" lengthAdjust="spacing" textLength="187" x="12" y="48.8467">Javaparser library and provides a</text><text fill="#000000" font-family="sans-serif" font-size="13" lengthAdjust="spacing" textLength="111" x="16" y="65.1982">simplified interface.</text><path d="M503.5,6 L503.5,39.5 L468.69,43.5 L503.5,47.5 L503.5,81.4063 A0,0 0 0 0 503.5,81.4063 L770.5,81.4063 A0,0 0 0 0 770.5,81.4063 L770.5,16 L760.5,6 L503.5,6 A0,0 0 0 0 503.5,6 " fill="#FBFB77" filter="url(#fnsbn69ho8jnc)" style="stroke:#A80036;stroke-width:1.0;"/><path d="M760.5,6 L760.5,16 L770.5,16 L760.5,6 " fill="#FBFB77" style="stroke:#A80036;stroke-width:1.0;"/><text fill="#000000" font-family="sans-serif" font-size="13" lengthAdjust="spacing" textLength="190" x="509.5" y="24.4951">the Parser.parse method parses,</text><text fill="#000000" font-family="sans-serif" font-size="13" lengthAdjust="spacing" textLength="189" x="513.5" y="40.8467">java project at the given path and</text><text fill="#000000" font-family="sans-serif" font-size="13" lengthAdjust="spacing" textLength="209" x="513.5" y="57.1982">constructs SourceComponent which</text><text fill="#000000" font-family="sans-serif" font-size="13" lengthAdjust="spacing" textLength="242" x="513.5" y="73.5498">is a part of ParsedComponents Hierarchy.</text><!--MD5=[e33f075cbf9c9451acf8bb5ab9d22e23]
@startuml
abstract Parser {
    {static} + parse(PATH: Path): SourceComponent
}

note left: Parser class acts as a facade for \nJavaparser library and provides a\n simplified interface.
note right of Parser: the Parser.parse method parses,\n java project at the given path and\n constructs SourceComponent which\n is a part of ParsedComponents Hierarchy.
@enduml

PlantUML version 1.2021.5(Sun Apr 25 16:50:28 IST 2021)
(GPL source distribution)
Java Runtime: OpenJDK Runtime Environment
JVM: Dynamic Code Evolution 64-Bit Server VM
Default Encoding: Cp1252
Language: en
Country: IN
--></g></svg>